<svg xmlns="http://www.w3.org/2000/svg" viewBox="0 0 760 185">
  <defs>
    <linearGradient id="g" x1="0%" y1="0%" x2="0%" y2="100%">
      <stop offset="0%" style="stop-color:#FF2D20"/>
      <stop offset="50%" style="stop-color:#FF6F61"/>
      <stop offset="100%" style="stop-color:#FFB4A8"/>
    </linearGradient>
  </defs>

  <!-- Dark terminal background -->
  <rect width="760" height="185" rx="12" fill="#0d1117"/>

  <!-- Terminal window dots -->
  <circle cx="24" cy="16" r="5.5" fill="#FF5F57"/>
  <circle cx="42" cy="16" r="5.5" fill="#FEBC2E"/>
  <circle cx="60" cy="16" r="5.5" fill="#28C840"/>

  <!-- PATROL block letters — unit=8px, stroke=10px wide -->
  <g fill="url(#g)">
    <!-- P -->
    <rect x="40" y="42" width="10" height="92"/>
    <rect x="50" y="42" width="34" height="10"/>
    <rect x="84" y="42" width="10" height="46"/>
    <rect x="50" y="78" width="34" height="10"/>

    <!-- A -->
    <rect x="108" y="52" width="10" height="82"/>
    <rect x="118" y="42" width="28" height="10"/>
    <rect x="146" y="52" width="10" height="82"/>
    <rect x="118" y="82" width="28" height="10"/>

    <!-- T -->
    <rect x="170" y="42" width="50" height="10"/>
    <rect x="190" y="52" width="10" height="82"/>

    <!-- R -->
    <rect x="234" y="42" width="10" height="92"/>
    <rect x="244" y="42" width="34" height="10"/>
    <rect x="278" y="42" width="10" height="46"/>
    <rect x="244" y="78" width="34" height="10"/>
    <rect x="264" y="88" width="10" height="16"/>
    <rect x="274" y="104" width="10" height="16"/>
    <rect x="284" y="116" width="10" height="18"/>

    <!-- O -->
    <rect x="308" y="52" width="10" height="72"/>
    <rect x="318" y="42" width="28" height="10"/>
    <rect x="346" y="52" width="10" height="72"/>
    <rect x="318" y="124" width="28" height="10"/>

    <!-- L -->
    <rect x="370" y="42" width="10" height="92"/>
    <rect x="380" y="124" width="34" height="10"/>
  </g>

  <!-- Tagline -->
  <text x="440" y="82" font-family="'SF Mono', ui-monospace, 'Cascadia Code', 'Fira Code', Menlo, monospace"
        font-size="15" font-weight="500" fill="#8b949e" letter-spacing="1">the Laravel way</text>
  <text x="440" y="105" font-family="'SF Mono', ui-monospace, 'Cascadia Code', 'Fira Code', Menlo, monospace"
        font-size="13" fill="#484f58" letter-spacing="1">conventions linter</text>
</svg>
